<svg width="327px" height="108px"
 viewBox="0.00 0.00 327.00 108.00" xmlns="http://www.w3.org/2000/svg" xmlns:xlink="http://www.w3.org/1999/xlink">
<g id="graph0" class="graph" transform="scale(1.0 1.0) rotate(0.0) translate(4.0 104.0)">
<title>SchemaCrawler_Diagram</title>
<polygon fill="white" stroke="transparent" points="-4,4 -4,-104 323,-104 323,4 -4,4"/>
<text text-anchor="start" x="140" y="-11.4" font-family="Helvetica,sans-Serif" font-weight="bold" font-style="italic" font-size="14.00">SchemaCrawler Report</text>
<polygon fill="none" stroke="#888888" points="137,-4 137,-26 311,-26 311,-4 137,-4"/>
<!-- address_ad90ab0a -->
<g id="node1" class="node">
<title>address_ad90ab0a</title>
<polygon fill="#e9c2f2" stroke="transparent" points="9.5,-75 9.5,-95 130.5,-95 130.5,-75 9.5,-75"/>
<text text-anchor="start" x="11.21" y="-81.4" font-family="Helvetica,sans-Serif" font-weight="bold" font-style="italic" font-size="14.00">public.address</text>
<polygon fill="#e9c2f2" stroke="transparent" points="130.5,-75 130.5,-95 310.5,-95 310.5,-75 130.5,-75"/>
<text text-anchor="start" x="249.71" y="-80.4" font-family="Helvetica,sans-Serif" font-size="14.00">[table]</text>
<text text-anchor="start" x="11.5" y="-61.4" font-family="Helvetica,sans-Serif" font-weight="bold" font-style="italic" font-size="14.00">address_id</text>
<text text-anchor="start" x="113.5" y="-60.4" font-family="Helvetica,sans-Serif" font-size="14.00"> </text>
<text text-anchor="start" x="132.31" y="-60.4" font-family="Helvetica,sans-Serif" font-size="14.00">varchar(255) not null</text>
<text text-anchor="start" x="11.5" y="-40.4" font-family="Helvetica,sans-Serif" font-size="14.00">description</text>
<text text-anchor="start" x="113.5" y="-40.4" font-family="Helvetica,sans-Serif" font-size="14.00"> </text>
<text text-anchor="start" x="132.5" y="-40.4" font-family="Helvetica,sans-Serif" font-size="14.00">varchar(255)</text>
<polygon fill="none" stroke="#888888" points="8,-34 8,-96 311,-96 311,-34 8,-34"/>
</g>
</g>
</svg>
